<?xml version="1.0" encoding="UTF-8" standalone="no"?>
<!-- Created with Inkscape (http://www.inkscape.org/) -->

<svg
   width="100mm"
   height="100mm"
   viewBox="0 0 100 100"
   version="1.1"
   id="svg1"
   inkscape:version="1.3.2 (091e20e, 2023-11-25, custom)"
   sodipodi:docname="icon.svg"
   xmlns:inkscape="http://www.inkscape.org/namespaces/inkscape"
   xmlns:sodipodi="http://sodipodi.sourceforge.net/DTD/sodipodi-0.dtd"
   xmlns="http://www.w3.org/2000/svg"
   xmlns:svg="http://www.w3.org/2000/svg">
  <sodipodi:namedview
     id="namedview1"
     pagecolor="#ffffff"
     bordercolor="#000000"
     borderopacity="0.25"
     inkscape:showpageshadow="2"
     inkscape:pageopacity="0.0"
     inkscape:pagecheckerboard="true"
     inkscape:deskcolor="#a8a8a8"
     inkscape:document-units="mm"
     inkscape:zoom="2.0257997"
     inkscape:cx="99.466894"
     inkscape:cy="255.94831"
     inkscape:window-width="2560"
     inkscape:window-height="1351"
     inkscape:window-x="-9"
     inkscape:window-y="-9"
     inkscape:window-maximized="1"
     inkscape:current-layer="layer1" />
  <defs
     id="defs1">
    <inkscape:path-effect
       effect="powerclip"
       id="path-effect25"
       is_visible="true"
       lpeversion="1"
       inverse="true"
       flatten="false"
       hide_clip="false"
       message="Use fill-rule evenodd on &lt;b&gt;fill and stroke&lt;/b&gt; dialog if no flatten result after convert clip to paths." />
    <inkscape:path-effect
       effect="powerclip"
       id="path-effect12"
       is_visible="true"
       lpeversion="1"
       inverse="true"
       flatten="false"
       hide_clip="false"
       message="Use fill-rule evenodd on &lt;b&gt;fill and stroke&lt;/b&gt; dialog if no flatten result after convert clip to paths." />
    <inkscape:path-effect
       effect="powerclip"
       id="path-effect11"
       is_visible="true"
       lpeversion="1"
       inverse="true"
       flatten="false"
       hide_clip="false"
       message="Use fill-rule evenodd on &lt;b&gt;fill and stroke&lt;/b&gt; dialog if no flatten result after convert clip to paths." />
    <inkscape:path-effect
       effect="powerclip"
       id="path-effect9"
       is_visible="true"
       lpeversion="1"
       inverse="true"
       flatten="false"
       hide_clip="false"
       message="Use fill-rule evenodd on &lt;b&gt;fill and stroke&lt;/b&gt; dialog if no flatten result after convert clip to paths." />
    <clipPath
       clipPathUnits="userSpaceOnUse"
       id="clipPath9">
      <rect
         style="display:block;fill:#000000;fill-opacity:1;stroke:none;stroke-width:0.79375;stroke-linejoin:round"
         id="rect9"
         width="23.966358"
         height="18.742085"
         x="6.5956464"
         y="24.096966" />
    </clipPath>
    <filter
       id="mask-powermask-path-effect12_inverse"
       inkscape:label="filtermask-powermask-path-effect12"
       style="color-interpolation-filters:sRGB"
       height="100"
       width="100"
       x="-50"
       y="-50">
      <feColorMatrix
         id="mask-powermask-path-effect12_primitive1"
         values="1"
         type="saturate"
         result="fbSourceGraphic" />
      <feColorMatrix
         id="mask-powermask-path-effect12_primitive2"
         values="-1 0 0 0 1 0 -1 0 0 1 0 0 -1 0 1 0 0 0 1 0 "
         in="fbSourceGraphic" />
    </filter>
    <clipPath
       clipPathUnits="userSpaceOnUse"
       id="clipPath12">
      <rect
         style="display:block;fill:#000000;fill-opacity:1;stroke:none;stroke-width:0.793753;stroke-linejoin:round"
         id="rect12"
         width="22.815317"
         height="17.240105"
         x="8.0323219"
         y="26.056068" />
    </clipPath>
    <clipPath
       clipPathUnits="userSpaceOnUse"
       id="clipPath25">
      <rect
         style="display:none;fill:#000000;fill-opacity:1;stroke:none;stroke-width:0.411491;stroke-linejoin:round"
         id="rect25"
         width="18.976955"
         height="17.60417"
         x="7.1137538"
         y="18.42062"
         d="M 7.1137538,18.42062 H 26.090709 V 36.02479 H 7.1137538 Z" />
      <path
         id="lpe_path-effect25"
         style="fill:#000000;fill-opacity:1;stroke:none;stroke-width:0.411491;stroke-linejoin:round"
         class="powerclip"
         d="M 8.602577,18.928281 H 41.11809 V 52.345747 H 8.602577 Z M 7.1137538,18.42062 V 36.02479 H 26.090709 V 18.42062 Z" />
    </clipPath>
  </defs>
  <g
     inkscape:label="Layer 1"
     inkscape:groupmode="layer"
     id="layer1"
     transform="matrix(1.9289626,0,0,1.9289626,2.0453512,-9.2807079)"
     style="stroke-width:0.518413;fill:#000000;fill-opacity:1">
    <rect
       style="display:inline;fill:#dde2e2;fill-opacity:1;stroke:none;stroke-width:0.411491;stroke-linejoin:round;stroke-opacity:1"
       id="rect13"
       width="51.841339"
       height="51.841335"
       x="-1.0603374"
       y="4.8112431"
       inkscape:label="rect13"
       ry="7.7762008"
       rx="7.7762008" />
    <g
       id="g25"
       transform="matrix(0.95494909,0,0,0.95548174,1.8715266,2.2345935)"
       style="stroke-width:0.542718">
      <path
         d="m 13.602577,45.140966 q 0.768334,-0.03341 1.269421,-0.200435 0.534492,-0.167029 0.801739,-0.768333 0.300652,-0.601304 0.300652,-1.937536 V 29.44024 q 0,-0.901956 0.03341,-1.737101 0.06681,-0.835145 0.100217,-1.269421 -0.534493,0.03341 -1.336232,0.06681 -0.801739,0 -1.169203,0.03341 v -2.572247 l 9.721088,-0.03341 q 3.307174,0 5.712392,1.002174 2.438623,0.968768 3.97529,2.639058 1.570073,1.67029 2.338406,3.74145 0.768333,2.037754 0.768333,4.108913 0,2.037754 -0.734927,4.14232 -0.701522,2.104565 -2.238189,3.875072 -1.536667,1.737102 -4.008696,2.839493 -2.472029,1.068986 -5.979638,1.068986 h -9.554059 z m 7.215653,-3.273768 q 0,0.901956 -0.03341,1.737101 -0.03341,0.835145 -0.100217,1.269421 0.334058,-0.03341 0.901956,0 0.601305,0 1.236015,0.03341 0.63471,0 1.03558,0 1.837319,0 3.140145,-0.734928 1.336232,-0.734928 2.171377,-1.970942 0.868551,-1.269421 1.26942,-2.839493 0.40087,-1.570073 0.40087,-3.240363 0,-5.111087 -2.07116,-7.482899 -2.037753,-2.371812 -5.511957,-2.472029 -0.801739,-0.03341 -1.369637,0.167029 -0.534493,0.167029 -0.80174,0.768333 -0.267246,0.601305 -0.267246,1.904131 z"
         id="text24"
         style="font-weight:bold;font-size:33.4058px;font-family:Lora;-inkscape-font-specification:'Lora Bold';fill:#758582;fill-opacity:1;stroke-width:0.363842;stroke-linejoin:round"
         aria-label="D"
         clip-path="url(#clipPath25)"
         transform="matrix(1.1839857,0,0,1.1839857,-1.3744979,-2.726555)"
         inkscape:original-d="m 13.602577,45.140966 q 0.768334,-0.03341 1.269421,-0.200435 0.534492,-0.167029 0.801739,-0.768333 0.300652,-0.601304 0.300652,-1.937536 V 29.44024 q 0,-0.901956 0.03341,-1.737101 0.06681,-0.835145 0.100217,-1.269421 -0.534493,0.03341 -1.336232,0.06681 -0.801739,0 -1.169203,0.03341 v -2.572247 l 9.721088,-0.03341 q 3.307174,0 5.712392,1.002174 2.438623,0.968768 3.97529,2.639058 1.570073,1.67029 2.338406,3.74145 0.768333,2.037754 0.768333,4.108913 0,2.037754 -0.734927,4.14232 -0.701522,2.104565 -2.238189,3.875072 -1.536667,1.737102 -4.008696,2.839493 -2.472029,1.068986 -5.979638,1.068986 h -9.554059 z m 7.215653,-3.273768 q 0,0.901956 -0.03341,1.737101 -0.03341,0.835145 -0.100217,1.269421 0.334058,-0.03341 0.901956,0 0.601305,0 1.236015,0.03341 0.63471,0 1.03558,0 1.837319,0 3.140145,-0.734928 1.336232,-0.734928 2.171377,-1.970942 0.868551,-1.269421 1.26942,-2.839493 0.40087,-1.570073 0.40087,-3.240363 0,-5.111087 -2.07116,-7.482899 -2.037753,-2.371812 -5.511957,-2.472029 -0.801739,-0.03341 -1.369637,0.167029 -0.534493,0.167029 -0.80174,0.768333 -0.267246,0.601305 -0.267246,1.904131 z"
         inkscape:path-effect="#path-effect25" />
      <path
         d="m 27.264749,19.005454 q -0.594613,-3.796384 -2.652894,-5.763184 -2.05828,-1.966801 -5.260049,-1.921062 -1.966801,0 -3.476207,1.097749 -1.463665,1.097749 -1.463665,2.835853 0,2.10402 1.829582,3.476207 1.829583,1.372186 5.580227,2.927331 1.738102,0.686094 3.567685,1.600885 1.829582,0.914791 3.384727,2.195498 1.555145,1.234968 2.515676,2.927332 0.96053,1.646624 0.96053,3.887863 0,2.698634 -1.463665,4.802654 -1.463666,2.104019 -4.11656,3.293247 -2.607156,1.143489 -6.129102,1.143489 -1.829582,0 -3.979341,-0.594614 -2.10402,-0.548875 -3.979341,-1.646624 L 12.71957,41.18914 H 9.1976236 V 30.486083 h 3.0188114 q 0.640353,3.842123 2.927331,5.808924 2.332718,1.921061 5.534487,1.921061 2.424197,0 3.933602,-1.280707 Q 26.167,35.654653 26.167,33.91655 q 0,-1.600885 -1.143488,-2.652895 -1.097751,-1.05201 -2.790114,-1.783842 -1.646624,-0.731833 -3.384727,-1.417927 -2.927331,-1.189229 -5.305789,-2.652894 -2.332718,-1.509405 -3.7049052,-3.567686 -1.3721863,-2.10402 -1.3721863,-5.07709 0,-1.417927 0.5488747,-2.927333 0.5488746,-1.555144 1.7838428,-2.835852 1.234969,-1.326447 3.293249,-2.1497592 2.05828,-0.823312 5.077091,-0.823312 1.829582,0 3.979341,0.5488747 2.195499,0.5488748 3.750644,1.6466245 L 26.715875,8.3481367 H 30.28356 V 19.005454 Z"
         id="text23"
         style="font-weight:bold;font-size:41.1593px;font-family:Lora;-inkscape-font-specification:'Lora Bold';fill:#711123;fill-opacity:1;stroke:#dde2e2;stroke-width:3.41587229;stroke-linecap:butt;stroke-linejoin:miter;stroke-dasharray:none;stroke-opacity:1;paint-order:stroke fill markers"
         aria-label="S"
         inkscape:label="text23" />
    </g>
  </g>
</svg>
